<svg xmlns="http://www.w3.org/2000/svg" viewBox="0 0 512 512"><path fill="#fff" d="M486.4 59.733H25.6c-14.138 0-25.6 11.461-25.6 25.6v341.333c0 14.138 11.461 25.6 25.6 25.6h460.8c14.138 0 25.6-11.461 25.6-25.6V85.333c0-14.138-11.461-25.6-25.6-25.6zm8.533 366.934a8.533 8.533 0 0 1-8.533 8.533H25.6a8.533 8.533 0 0 1-8.533-8.533V85.333A8.533 8.533 0 0 1 25.6 76.8h460.8a8.533 8.533 0 0 1 8.533 8.533v341.334z"/><path fill="#fff" d="M470.076 93.898a8.53 8.53 0 0 0-6.229 1.966L266.982 261.239a17.068 17.068 0 0 1-21.965 0L48.154 95.863a8.535 8.535 0 0 0-10.974 13.073l196.864 165.367c12.688 10.683 31.224 10.683 43.913 0L474.82 108.937a8.532 8.532 0 0 0 1.049-12.023 8.524 8.524 0 0 0-5.793-3.016zM164.124 273.13a8.535 8.535 0 0 0-8.229 2.65l-119.467 128a8.532 8.532 0 1 0 12.476 11.639l119.467-128a8.532 8.532 0 0 0-4.247-14.289zm191.981 2.65a8.534 8.534 0 1 0-12.476 11.639l119.467 128a8.533 8.533 0 1 0 12.476-11.64L356.105 275.78z"/></svg>