<svg xmlns="http://www.w3.org/2000/svg" viewBox="0 0 511.751 511.751"><path fill="#fff" d="M426.529 281.351a8.533 8.533 0 0 0-8.533 8.533v196.267a8.533 8.533 0 0 1-8.533 8.533H324.13v-128c0-14.138-11.462-25.6-25.6-25.6h-85.333c-14.138 0-25.6 11.461-25.6 25.6v128h-85.333a8.533 8.533 0 0 1-8.533-8.533V289.884c0-4.713-3.82-8.533-8.533-8.533s-8.533 3.82-8.533 8.533v196.267c0 14.138 11.461 25.6 25.6 25.6h307.2c14.138 0 25.6-11.461 25.6-25.6V289.884a8.536 8.536 0 0 0-8.536-8.533zM307.063 494.684h-102.4v-128a8.533 8.533 0 0 1 8.533-8.533h85.333a8.533 8.533 0 0 1 8.533 8.533v128zm173.252-274.867L274.047 7.482c-10.071-9.976-26.298-9.976-36.369 0L31.436 219.817a26.35 26.35 0 0 0-5.316 28.706 25.25 25.25 0 0 0 23.484 15.761h2.918a25.377 25.377 0 0 0 16.555-6.357c.609-.397 1.18-.848 1.707-1.348L255.863 65.927l185.216 190.754c.494.469 1.028.894 1.596 1.271a25.392 25.392 0 0 0 16.529 6.332h2.918a25.249 25.249 0 0 0 23.509-15.761 26.35 26.35 0 0 0-5.316-28.706zm-10.402 22.067a8.447 8.447 0 0 1-7.791 5.333h-2.918a8.241 8.241 0 0 1-5.973-2.56c-.06-.068-.154-.085-.213-.145-.06-.06-.119-.154-.196-.213L261.981 47.734l-.102-.068-.043-.128a7.795 7.795 0 0 0-1.323-.853 8.158 8.158 0 0 0-1.425-.913 7.931 7.931 0 0 0-1.613-.341 4.618 4.618 0 0 0-3.174 0 8.014 8.014 0 0 0-1.613.341 8.276 8.276 0 0 0-1.425.913 7.795 7.795 0 0 0-1.323.853l-.068.102-.102.068L58.888 244.299c-.077.06-.111.145-.188.205s-.162.085-.222.154a8.244 8.244 0 0 1-5.973 2.56h-2.901a8.448 8.448 0 0 1-7.791-5.333 9.267 9.267 0 0 1 1.835-10.18h-.018L249.889 19.378a8.38 8.38 0 0 1 11.896 0l206.293 212.326a9.267 9.267 0 0 1 1.835 10.18z"/><path fill="#fff" d="M289.996 298.418c14.138 0 25.6-11.462 25.6-25.6v-59.733c0-14.139-11.462-25.6-25.6-25.6h-68.267c-14.138 0-25.6 11.461-25.6 25.6v59.733c0 14.138 11.461 25.6 25.6 25.6h68.267zm-76.8-25.6v-59.733a8.533 8.533 0 0 1 8.533-8.533h68.267a8.533 8.533 0 0 1 8.533 8.533v59.733a8.533 8.533 0 0 1-8.533 8.533h-68.267a8.533 8.533 0 0 1-8.533-8.533zm17.067 145.066h-8.533c-4.713 0-8.533 3.82-8.533 8.533s3.82 8.533 8.533 8.533h8.533a8.533 8.533 0 0 0 0-17.066z"/></svg>